<?xml version="1.0" encoding="UTF-8" standalone="no"?>
<svg
 fill="ghostwhite"
 viewBox="-305 0 610 610"
 width="610" height="610"
 xmlns="http://www.w3.org/2000/svg"
 xmlns:xlink="http://www.w3.org/1999/xlink">
    <symbol id="round-bracket">
        <!--
        97.581  ≈ 69√2
        21.22   ≈ -69+√(5017+2208√2)
        113.581 ≈ 16+69√2
        -->
        <path d="m 69,206 a 97.581,97.581 0 0,0 0,-138 h 21.22 a 113.581,113.581 0 0,1 0,138 z" />
    </symbol>
    <symbol id="square-bracket">
        <path d="m 49,386 h -37 v -16 h 21 v -106 h -21 v -16 h 37 z" />
    </symbol>
    <rect fill="blue" width="610" height="610" x="-305" />
    <g id="head">
        <animateTransform
         attributeName="transform"
         begin="2s"
         dur="1s"
         from="0 0 137"
         to="180 0 137"
         type="rotate"
         />
        <use xlink:href="#round-bracket" />
        <path d="m 44,145 h -36 v 36 h -16 v -36 h -36 v -16 h 36 v -36 h 16 v 36 h 36 z" />
        <use transform="scale(-1, 1)" xlink:href="#round-bracket" />
    </g>
    <use xlink:href="#square-bracket" />
    <use transform="scale(-1, 1)" xlink:href="#square-bracket" />
    <path d="m 10,432 -2,77 -16,0 -2,-77 z m -1,110 h -18 v -18 h 18 z" />
</svg>
