<?xml version="1.0" encoding="UTF-8" standalone="no"?>
<svg
 xmlns="http://www.w3.org/2000/svg"
 width="600"
 height="600"
 style="background: blue; fill: white;"
 viewBox="-300 0 600 600">
    <path d="m -69,203 a 97.581 97.581 0 0 1 0,-138 h -16.129 a 109.581 109.581 0 0 0 0,138 z"/>
    <path d="m 44,140 -38,0 0,38 -12,0 0,-38 -38,0 0,-12 38,0 0,-38 12,0 0,38 38,0 z"/>
    <path d="m 69,203 a 97.581 97.581 0 0 0 0,-138 h 16.129 a 109.581 109.581 0 0 1 0,138 z"/>
    <path d="m -12,383 -37,0 0,-138 37,0 0,12 -25,0 0,114 25,0 z"/>
    <path d="m 49,383 -37,0 0,-12 25,0 0,-114 -25,0 0,-12 37,0 z"/>
    <path d="m 8,429 -2,77 -12,0 -2,-77 z m -1,106 -14,0 0,-14 14,0 z"/>
</svg>
